<?xml version="1.0" standalone="no"?>
<!DOCTYPE svg PUBLIC "-//W3C//DTD SVG 20010904//EN"
 "http://www.w3.org/TR/2001/REC-SVG-20010904/DTD/svg10.dtd">
<svg version="1.0" xmlns="http://www.w3.org/2000/svg"
 width="700.000000pt" height="700.000000pt" viewBox="0 0 700.000000 700.000000"
 preserveAspectRatio="xMidYMid meet">
<metadata>
Created by potrace 1.14, written by Peter Selinger 2001-2017
</metadata>
<g transform="translate(0.000000,700.000000) scale(0.100000,-0.100000)"
fill="#000000" stroke="none">
<path d="M1103 6980 c-37 -24 -52 -58 -87 -200 -44 -176 -55 -256 -56 -415 -3
-256 63 -484 197 -687 41 -63 216 -248 234 -248 4 0 -3 -27 -17 -60 -31 -76
-71 -232 -81 -312 -14 -113 -6 -296 17 -408 23 -111 75 -261 115 -332 28 -48
31 -68 13 -68 -7 0 -60 -23 -118 -51 -288 -138 -487 -328 -600 -573 -67 -144
-93 -272 -94 -451 -1 -209 13 -313 70 -516 55 -198 178 -481 293 -678 17 -28
31 -54 31 -57 0 -23 303 -456 409 -584 147 -177 361 -400 461 -479 58 -46 111
-54 155 -25 13 8 72 87 130 175 l107 159 79 -74 c90 -85 226 -189 342 -261 73
-46 76 -50 64 -69 -31 -47 -101 -69 -322 -102 -256 -37 -440 -185 -543 -436
-37 -88 -40 -138 -12 -178 59 -82 178 -54 211 50 20 62 80 167 117 207 21 21
62 53 92 70 52 29 147 59 157 50 2 -3 -25 -63 -60 -134 -78 -154 -85 -188 -54
-234 12 -19 34 -40 47 -47 34 -17 97 -8 125 18 12 12 71 119 131 239 107 215
110 218 152 236 52 21 141 100 166 147 l19 34 81 -29 c44 -15 101 -32 126 -37
25 -5 56 -12 70 -15 46 -10 154 -19 230 -19 148 0 257 18 420 69 l84 27 16
-23 c35 -53 128 -137 170 -153 l45 -17 105 -212 c58 -116 115 -224 128 -239
61 -72 179 -31 196 68 5 26 -8 60 -64 174 -39 78 -68 145 -65 148 7 8 82 -16
141 -44 93 -45 180 -157 223 -286 28 -85 100 -120 171 -83 66 34 76 94 33 202
-65 165 -178 302 -300 365 -104 54 -149 66 -388 104 -84 13 -147 38 -172 68
-23 28 -24 31 -8 41 156 94 306 207 417 313 l66 64 108 -162 c59 -89 117 -168
128 -176 35 -24 98 -18 143 15 58 42 283 268 384 386 453 527 756 1084 865
1590 38 176 40 441 4 601 -76 336 -316 609 -692 784 l-116 53 22 36 c30 47 79
169 104 256 72 246 59 543 -32 787 l-33 88 24 15 c45 30 174 169 219 236 89
134 149 290 178 459 25 146 14 449 -20 562 -3 9 -7 25 -9 37 -8 42 -48 177
-58 196 -24 47 -89 75 -137 60 -12 -4 -55 -37 -95 -73 -101 -93 -186 -137
-365 -189 -47 -14 -92 -27 -100 -28 -48 -11 -310 -65 -335 -69 -74 -13 -239
-49 -337 -73 l-107 -26 -78 41 c-135 70 -335 140 -448 158 -22 3 -42 7 -45 9
-31 19 -568 28 -700 12 -180 -22 -363 -77 -538 -163 l-113 -55 -152 35 c-134
31 -196 44 -287 61 -500 95 -655 151 -808 289 -91 82 -130 93 -189 56z m242
-377 c105 -54 355 -131 515 -158 19 -3 55 -11 80 -16 49 -12 51 -12 160 -29
122 -20 278 -56 383 -90 115 -37 297 -109 353 -139 l39 -22 -35 6 c-19 3 -44
7 -55 9 -97 18 -285 25 -360 12 -17 -3 -50 -8 -75 -11 -164 -22 -388 -117
-540 -228 -74 -55 -192 -169 -247 -239 -24 -32 -48 -58 -52 -58 -16 0 -126
119 -171 187 -103 154 -150 336 -145 558 3 125 10 182 34 283 1 2 13 -5 29
-15 15 -11 54 -33 87 -50z m4434 30 c25 -94 35 -336 18 -443 -28 -187 -117
-367 -243 -492 -62 -63 -79 -69 -89 -37 -11 35 -226 244 -305 296 -222 148
-458 222 -715 225 -96 1 -190 -8 -270 -27 -33 -7 -61 -12 -63 -11 -1 2 30 18
70 35 40 18 93 42 118 53 53 24 324 114 366 122 16 2 63 12 104 21 41 9 128
25 194 36 65 11 121 21 125 23 4 3 27 7 51 11 76 11 300 71 390 104 47 17 119
51 160 75 41 24 76 44 77 45 1 1 7 -16 12 -36z m-2029 -107 c48 -5 115 -16
187 -30 42 -9 178 -48 195 -57 14 -8 -1 -19 -76 -58 -207 -106 -408 -285 -522
-465 -16 -25 -31 -46 -34 -46 -3 0 -18 21 -34 46 -119 189 -322 366 -545 479
l-75 37 40 14 c106 38 257 70 371 80 43 4 79 7 80 8 5 4 368 -3 413 -8z
m-1005 -591 c270 -56 460 -167 634 -372 52 -61 88 -83 125 -77 51 7 67 18 111
71 206 248 483 385 795 392 399 9 762 -204 954 -560 36 -67 90 -218 100 -279
17 -104 20 -143 19 -230 -4 -425 -279 -811 -687 -965 -35 -13 -78 -27 -93 -30
-312 -65 -570 -27 -808 116 l-50 30 1 56 c3 94 -34 180 -108 249 -146 136
-366 127 -496 -21 -61 -70 -85 -127 -88 -215 l-2 -74 -88 -48 c-222 -119 -469
-155 -724 -103 -49 9 -186 58 -235 82 -137 69 -281 187 -372 305 -77 101 -168
293 -188 398 -31 165 -35 295 -11 423 83 439 416 772 853 851 77 14 293 15
358 1z m838 -1775 c15 -16 27 -39 27 -50 0 -17 -91 -257 -107 -283 -6 -10
-113 256 -113 282 0 23 37 70 64 82 40 17 99 3 129 -31z m-2117 -197 c-13
-106 -17 -139 -21 -163 -20 -106 -27 -572 -13 -730 18 -190 44 -343 89 -524
105 -416 285 -790 541 -1124 l56 -74 -70 -106 c-38 -59 -74 -113 -80 -119 -8
-9 -30 7 -87 65 -499 506 -897 1172 -996 1667 -30 149 -38 334 -20 446 36 228
150 415 342 561 52 40 240 148 257 148 4 0 6 -21 2 -47z m4137 16 c252 -126
417 -304 500 -539 15 -43 18 -58 33 -140 3 -19 7 -78 9 -132 2 -86 -1 -123
-21 -263 -3 -22 -14 -76 -25 -120 -104 -413 -387 -917 -764 -1360 -123 -144
-277 -305 -291 -305 -6 0 -45 52 -87 115 l-77 115 50 62 c98 121 234 336 313
493 156 312 248 619 311 1035 15 95 21 226 21 435 0 234 -4 296 -30 496 -16
124 -18 139 -10 139 3 0 34 -14 68 -31z m-3768 -130 c118 -86 330 -178 465
-204 237 -45 449 -34 663 36 51 16 135 52 188 78 110 56 97 60 138 -44 71
-182 105 -262 119 -283 21 -32 60 -50 101 -46 63 5 81 29 153 205 37 90 72
177 77 192 l10 28 73 -39 c274 -146 544 -185 878 -127 154 27 394 140 520 243
85 70 77 71 90 -9 7 -39 14 -86 15 -103 2 -17 6 -51 10 -76 13 -98 21 -447 11
-535 -2 -16 -7 -64 -10 -105 -4 -41 -9 -82 -11 -90 -2 -8 -7 -40 -10 -70 -4
-30 -17 -103 -30 -162 -160 -721 -553 -1338 -1070 -1680 -155 -103 -363 -193
-502 -217 -32 -6 -74 -13 -93 -17 -77 -13 -257 -3 -355 20 -335 80 -676 309
-952 639 -221 265 -421 641 -532 1003 -43 141 -87 331 -97 424 -3 25 -7 52 -9
60 -2 8 -7 47 -10 85 -4 39 -8 84 -11 100 -4 36 -4 400 0 435 2 14 7 61 10
105 4 44 9 87 11 95 2 8 7 35 11 60 3 25 8 52 9 60 2 8 4 21 4 29 1 9 11 5 34
-13 17 -14 64 -49 102 -77z"/>
<path d="M2517 5484 c-1 -1 -20 -5 -42 -8 -384 -61 -602 -481 -430 -831 121
-248 394 -376 661 -310 363 90 547 492 379 828 -77 153 -230 272 -395 306 -47
9 -168 20 -173 15z m199 -269 c227 -111 268 -405 79 -578 -109 -100 -285 -114
-415 -32 -41 26 -103 92 -123 132 -43 83 -50 199 -16 288 22 59 94 146 143
173 108 59 232 66 332 17z"/>
<path d="M2525 5006 c-43 -19 -66 -49 -71 -93 -15 -122 156 -178 213 -69 50
96 -45 204 -142 162z"/>
<path d="M4360 5478 c-335 -43 -566 -368 -496 -697 68 -319 395 -527 705 -447
266 68 443 292 444 561 1 171 -50 294 -172 415 -133 132 -303 191 -481 168z
m167 -243 c191 -56 300 -258 238 -441 -21 -63 -31 -79 -73 -126 -185 -204
-517 -127 -595 138 -16 55 -14 147 4 202 58 176 249 278 426 227z"/>
<path d="M4382 5003 c-129 -63 -40 -265 92 -209 44 19 67 48 72 93 11 89 -83
156 -164 116z"/>
<path d="M2273 3130 c-42 -25 -53 -48 -53 -108 0 -140 97 -272 234 -318 101
-34 206 -21 300 37 43 26 51 28 65 16 9 -8 31 -22 50 -32 115 -58 251 -53 353
15 l46 31 45 -31 c111 -75 278 -72 384 7 l32 24 40 -25 c125 -80 262 -82 383
-7 l48 30 50 -31 c137 -85 314 -65 428 49 82 82 126 216 95 291 -15 38 -66 72
-106 72 -60 0 -117 -60 -117 -122 0 -12 -8 -37 -19 -54 -60 -98 -197 -60 -215
61 -5 30 -18 58 -36 78 -25 28 -35 32 -79 32 -68 0 -108 -37 -117 -108 -12
-88 -73 -134 -149 -113 -47 14 -85 63 -85 110 0 89 -100 144 -177 96 -38 -23
-49 -41 -57 -97 -9 -70 -43 -105 -111 -115 -53 -7 -112 45 -120 106 -3 18 -9
45 -15 60 -11 30 -64 66 -98 66 -61 0 -122 -57 -122 -115 0 -35 -24 -79 -54
-99 -35 -23 -97 -21 -130 5 -34 27 -44 47 -51 100 -8 66 -50 104 -114 104 -35
0 -55 -6 -71 -20 -27 -24 -50 -75 -50 -111 0 -41 -59 -94 -104 -94 -70 0 -126
50 -126 114 0 38 -18 69 -54 94 -40 27 -81 28 -123 2z"/>
<path d="M2513 2434 c-113 -56 -63 -278 87 -386 97 -70 240 -82 349 -30 20 10
48 26 62 35 24 16 27 16 59 -8 104 -76 264 -79 382 -6 l48 30 47 -30 c115 -72
257 -72 376 1 l48 30 33 -25 c90 -68 240 -79 354 -24 132 64 232 272 177 367
-36 61 -104 78 -163 42 -34 -21 -49 -49 -56 -104 -11 -88 -96 -132 -176 -91
-31 16 -37 27 -59 110 -13 48 -23 64 -50 82 -40 27 -71 29 -117 7 -38 -18 -64
-58 -64 -99 0 -34 -24 -80 -52 -99 -12 -9 -42 -16 -66 -16 -60 0 -106 44 -116
113 -5 32 -17 59 -36 80 -25 28 -35 32 -78 32 -36 0 -56 -6 -72 -20 -27 -24
-50 -75 -50 -111 0 -16 -13 -39 -34 -60 -36 -36 -78 -44 -130 -24 -32 12 -66
65 -66 103 0 43 -25 82 -64 101 -85 40 -161 -8 -170 -110 -7 -62 -54 -104
-116 -104 -63 0 -108 41 -116 105 -7 56 -22 84 -56 105 -39 24 -72 25 -115 4z"/>
<path d="M2751 1738 c-74 -40 -87 -140 -33 -251 40 -80 89 -129 166 -167 108
-53 230 -46 339 20 l47 29 43 -28 c114 -76 277 -74 384 6 l32 24 42 -27 c190
-119 423 -50 516 153 29 62 35 142 14 190 -25 61 -123 81 -174 36 -25 -22 -47
-74 -47 -109 0 -16 -13 -39 -34 -60 -36 -36 -78 -44 -130 -24 -32 12 -66 65
-66 103 0 38 -26 80 -60 101 -76 44 -164 -8 -174 -104 -8 -68 -51 -110 -115
-110 -65 0 -106 38 -117 106 -9 60 -22 83 -56 104 -39 24 -69 25 -112 5 -39
-19 -66 -62 -66 -108 0 -25 -9 -43 -35 -70 -31 -32 -42 -37 -81 -37 -39 0 -51
5 -80 34 -21 21 -34 44 -34 60 0 36 -22 87 -48 109 -26 24 -90 32 -121 15z"/>
</g>
</svg>
